<svg width="48" height="49" viewBox="0 0 48 49" fill="none" xmlns="http://www.w3.org/2000/svg">
<g clip-path="url(#clip0_134_1074)">
<path d="M15.75 30.5C21.1348 30.5 25.5 26.1348 25.5 20.75C25.5 15.3652 21.1348 11 15.75 11C10.3652 11 6 15.3652 6 20.75C6 26.1348 10.3652 30.5 15.75 30.5Z" stroke="#E80707" stroke-width="3" stroke-linecap="round" stroke-linejoin="round"/>
<path d="M1.91797 38C3.41626 35.6963 5.46621 33.8033 7.88172 32.4929C10.2972 31.1824 13.0018 30.4961 15.7498 30.4961C18.4979 30.4961 21.2025 31.1824 23.618 32.4929C26.0335 33.8033 28.0834 35.6963 29.5817 38" stroke="#E80707" stroke-width="3" stroke-linecap="round" stroke-linejoin="round"/>
<path d="M32.25 30.5C34.9979 30.4984 37.7027 31.1837 40.1184 32.4935C42.534 33.8033 44.584 35.6962 46.0819 38" stroke="#E80707" stroke-width="3" stroke-linecap="round" stroke-linejoin="round"/>
<path d="M28.6294 11.6937C29.9631 11.1618 31.3979 10.931 32.8311 11.0179C34.2644 11.1047 35.6608 11.507 36.9205 12.1961C38.1802 12.8852 39.2722 13.844 40.1184 15.0041C40.9646 16.1641 41.5442 17.4968 41.8156 18.9068C42.0871 20.3167 42.0437 21.7693 41.6887 23.1606C41.3337 24.5519 40.6758 25.8476 39.7619 26.9552C38.8481 28.0627 37.7009 28.9548 36.4024 29.5675C35.1038 30.1803 33.6859 30.4987 32.25 30.5" stroke="#E80707" stroke-width="3" stroke-linecap="round" stroke-linejoin="round"/>
</g>
<defs>
<clipPath id="clip0_134_1074">
<rect width="48" height="48" fill="white" transform="translate(0 0.5)"/>
</clipPath>
</defs>
</svg>
