<svg width="50" height="50" viewBox="0 0 50 50" fill="none" xmlns="http://www.w3.org/2000/svg">
<g clip-path="url(#clip0_210_3890)">
<path d="M2 45C0.89543 45 -3.91405e-08 44.1046 -8.74228e-08 43L-1.66103e-06 7C-1.70931e-06 5.89543 0.895429 5 2 5L3 5C4.10457 5 5 5.89543 5 7L5 43C5 44.1046 4.10457 45 3 45L2 45Z" fill="#303030"/>
<path d="M12 45C10.8954 45 10 44.1046 10 43L10 7C10 5.89543 10.8954 5 12 5L13 5C14.1046 5 15 5.89543 15 7L15 43C15 44.1046 14.1046 45 13 45L12 45Z" fill="#303030"/>
<path d="M22 45C20.8954 45 20 44.1046 20 43L20 7C20 5.89543 20.8954 5 22 5L23 5C24.1046 5 25 5.89543 25 7L25 43C25 44.1046 24.1046 45 23 45L22 45Z" fill="#303030"/>
<path d="M32 45C30.8954 45 30 44.1046 30 43L30 7C30 5.89543 30.8954 5 32 5L33 5C34.1046 5 35 5.89543 35 7L35 43C35 44.1046 34.1046 45 33 45L32 45Z" fill="#303030"/>
<path d="M42 45C40.8954 45 40 44.1046 40 43L40 7C40 5.89543 40.8954 5 42 5L43 5C44.1046 5 45 5.89543 45 7L45 43C45 44.1046 44.1046 45 43 45L42 45Z" fill="#303030"/>
</g>
<defs>
<clipPath id="clip0_210_3890">
<rect width="50" height="50" fill="white"/>
</clipPath>
</defs>
</svg>
