<svg width="48" height="49" viewBox="0 0 48 49" fill="none" xmlns="http://www.w3.org/2000/svg">
<g clip-path="url(#clip0_134_1086)">
<path d="M7.5 21.5H40.5V38C40.5 38.3978 40.342 38.7794 40.0607 39.0607C39.7794 39.342 39.3978 39.5 39 39.5H9C8.60218 39.5 8.22064 39.342 7.93934 39.0607C7.65804 38.7794 7.5 38.3978 7.5 38V21.5Z" stroke="#E80707" stroke-width="3" stroke-linecap="round" stroke-linejoin="round"/>
<path d="M7.58064 21.5L39 13.2069L37.47 7.58187C37.3644 7.20638 37.115 6.88768 36.7759 6.69496C36.4368 6.50224 36.0354 6.45104 35.6588 6.5525L7.09688 14.0881C6.91022 14.1357 6.73486 14.2198 6.58096 14.3356C6.42706 14.4515 6.2977 14.5967 6.20037 14.7629C6.10305 14.9292 6.03969 15.1131 6.01399 15.304C5.98829 15.4949 6.00074 15.689 6.05064 15.875L7.58064 21.5Z" stroke="#E80707" stroke-width="3" stroke-linecap="round" stroke-linejoin="round"/>
<path d="M12.6958 12.6106L21.6564 17.7856" stroke="#E80707" stroke-width="3" stroke-linecap="round" stroke-linejoin="round"/>
<path d="M23.7393 9.69688L32.6999 14.87" stroke="#E80707" stroke-width="3" stroke-linecap="round" stroke-linejoin="round"/>
</g>
<defs>
<clipPath id="clip0_134_1086">
<rect width="48" height="48" fill="white" transform="translate(0 0.5)"/>
</clipPath>
</defs>
</svg>
