<svg width="50" height="50" viewBox="0 0 50 50" fill="none" xmlns="http://www.w3.org/2000/svg">
<path d="M4 2C4 0.89543 4.89543 0 6 0H42C43.1046 0 44 0.895431 44 2V3C44 4.10457 43.1046 5 42 5H6C4.89543 5 4 4.10457 4 3V2Z" fill="#303030"/>
<path d="M4 12C4 10.8954 4.89543 10 6 10H42C43.1046 10 44 10.8954 44 12V13C44 14.1046 43.1046 15 42 15H6C4.89543 15 4 14.1046 4 13V12Z" fill="#303030"/>
<path d="M4 22C4 20.8954 4.89543 20 6 20H42C43.1046 20 44 20.8954 44 22V23C44 24.1046 43.1046 25 42 25H6C4.89543 25 4 24.1046 4 23V22Z" fill="#303030"/>
<path d="M4 32C4 30.8954 4.89543 30 6 30H42C43.1046 30 44 30.8954 44 32V33C44 34.1046 43.1046 35 42 35H6C4.89543 35 4 34.1046 4 33V32Z" fill="#303030"/>
<path d="M4 42C4 40.8954 4.89543 40 6 40H42C43.1046 40 44 40.8954 44 42V43C44 44.1046 43.1046 45 42 45H6C4.89543 45 4 44.1046 4 43V42Z" fill="#303030"/>
</svg>
