<svg width="48" height="49" viewBox="0 0 48 49" fill="none" xmlns="http://www.w3.org/2000/svg">
<g clip-path="url(#clip0_134_1080)">
<path d="M6 15.5L11.7281 39.8431C11.8055 40.1724 11.9919 40.4658 12.257 40.6759C12.5222 40.8859 12.8505 41.0001 13.1887 41H34.8113C35.1495 41.0001 35.4778 40.8859 35.743 40.6759C36.0081 40.4658 36.1945 40.1724 36.2719 39.8431L42 15.5L31.5 18.5L24.5625 15.7231C24.205 15.5802 23.8062 15.5802 23.4487 15.7231L16.5 18.5L6 15.5Z" stroke="#E80707" stroke-width="3" stroke-linecap="round" stroke-linejoin="round"/>
<path d="M16.5 18.5L19.5 41" stroke="#E80707" stroke-width="3" stroke-linecap="round" stroke-linejoin="round"/>
<path d="M31.5 18.5L28.5 41" stroke="#E80707" stroke-width="3" stroke-linecap="round" stroke-linejoin="round"/>
<path d="M40.5 15.9313C40.4464 14.7953 40.1066 13.6914 39.5123 12.7218C38.9179 11.7523 38.0883 10.9486 37.1003 10.3855C36.1124 9.82229 34.9982 9.51784 33.8611 9.50039C32.7241 9.48293 31.601 9.75304 30.5962 10.2856C30.2627 8.78691 29.4281 7.44671 28.2302 6.48619C27.0324 5.52566 25.5429 5.00221 24.0075 5.00221C22.4721 5.00221 20.9826 5.52566 19.7848 6.48619C18.5869 7.44671 17.7523 8.78691 17.4188 10.2856C16.4136 9.74965 15.2892 9.47677 14.1502 9.4924C13.0112 9.50803 11.8946 9.81165 10.9046 10.375C9.91452 10.9383 9.08313 11.7431 8.48784 12.7143C7.89255 13.6854 7.55272 14.7915 7.5 15.9294" stroke="#E80707" stroke-width="3" stroke-linecap="round" stroke-linejoin="round"/>
</g>
<defs>
<clipPath id="clip0_134_1080">
<rect width="48" height="48" fill="white" transform="translate(0 0.5)"/>
</clipPath>
</defs>
</svg>
