<svg width="48" height="49" viewBox="0 0 48 49" fill="none" xmlns="http://www.w3.org/2000/svg">
<g clip-path="url(#clip0_134_1092)">
<path d="M24 42.5C33.9411 42.5 42 34.4411 42 24.5C42 14.5589 33.9411 6.5 24 6.5C14.0589 6.5 6 14.5589 6 24.5C6 34.4411 14.0589 42.5 24 42.5Z" stroke="#E80707" stroke-width="3" stroke-linecap="round" stroke-linejoin="round"/>
<path d="M24 42.5H42" stroke="#E80707" stroke-width="3" stroke-linecap="round" stroke-linejoin="round"/>
<path d="M24 18.5C25.6569 18.5 27 17.1569 27 15.5C27 13.8431 25.6569 12.5 24 12.5C22.3431 12.5 21 13.8431 21 15.5C21 17.1569 22.3431 18.5 24 18.5Z" stroke="#E80707" stroke-width="3" stroke-linecap="round" stroke-linejoin="round"/>
<path d="M24 36.5C25.6569 36.5 27 35.1569 27 33.5C27 31.8431 25.6569 30.5 24 30.5C22.3431 30.5 21 31.8431 21 33.5C21 35.1569 22.3431 36.5 24 36.5Z" stroke="#E80707" stroke-width="3" stroke-linecap="round" stroke-linejoin="round"/>
<path d="M33 27.5C34.6569 27.5 36 26.1569 36 24.5C36 22.8431 34.6569 21.5 33 21.5C31.3431 21.5 30 22.8431 30 24.5C30 26.1569 31.3431 27.5 33 27.5Z" stroke="#E80707" stroke-width="3" stroke-linecap="round" stroke-linejoin="round"/>
<path d="M15 27.5C16.6569 27.5 18 26.1569 18 24.5C18 22.8431 16.6569 21.5 15 21.5C13.3431 21.5 12 22.8431 12 24.5C12 26.1569 13.3431 27.5 15 27.5Z" stroke="#E80707" stroke-width="3" stroke-linecap="round" stroke-linejoin="round"/>
</g>
<defs>
<clipPath id="clip0_134_1092">
<rect width="48" height="48" fill="white" transform="translate(0 0.5)"/>
</clipPath>
</defs>
</svg>
